<?xml version="1.0" encoding="UTF-8"?>
<svg width="12px" height="11px" viewBox="0 0 12 11" version="1.1" xmlns="http://www.w3.org/2000/svg" xmlns:xlink="http://www.w3.org/1999/xlink">
    <!-- Generator: Sketch 48.1 (47250) - http://www.bohemiancoding.com/sketch -->
    <title>Page 1 Copy</title>
    <desc>Created with Sketch.</desc>
    <defs></defs>
    <g id="Mobile-3" stroke="none" stroke-width="1" fill="none" fill-rule="evenodd" transform="translate(-12.000000, -273.000000)">
        <g id="tovar1" transform="translate(12.000000, 134.000000)" fill="#FEB909">
            <g id="Group-8" transform="translate(0.000000, 139.000000)">
                <g id="star">
                    <path d="M9.06870677,10.9179088 L5.99999999,8.99352895 L2.93129321,10.9179088 C2.74035145,11.0357281 2.49485491,11.0226373 2.31755185,10.9048179 C2.14024879,10.7739077 2.05841661,10.5513608 2.1129714,10.3419037 L3.08131887,7.06914939 L0.189915152,4.72585728 C0.0262507903,4.5949471 -0.0419426937,4.37239981 0.0262507903,4.16294353 C0.0944442743,3.95348725 0.285386029,3.82257708 0.503605178,3.79639504 L3.95419547,3.56075673 L5.5090069,0.3010934 C5.59083908,0.117819157 5.78178084,0 5.99999999,0 C6.21821914,0 6.40916089,0.117819157 6.49099307,0.3010934 L8.04580451,3.56075673 L11.4963948,3.79639504 C11.7146139,3.80948606 11.9055557,3.95348725 11.9737492,4.16294353 C12.0419427,4.35930879 11.9737492,4.58185609 11.8100862,4.72585728 L8.9323198,7.05605837 L9.90066727,10.328813 C9.96886076,10.538269 9.88702858,10.760817 9.69608682,10.8917271 C9.60061594,10.9571812 9.49150637,10.9964546 9.3687581,10.9964546 C9.25964716,10.9964546 9.16417765,10.970273 9.06870677,10.9179088 Z" id="Page-1-Copy"></path>
                </g>
            </g>
        </g>
    </g>
</svg>